<svg xmlns="http://www.w3.org/2000/svg" viewBox="0 0 96 96" role="img" aria-label="browser app icon">
  <defs>
    <linearGradient id="metal" x1="0" y1="0" x2="1" y2="1"><stop stop-color="#202734"/><stop offset=".45" stop-color="#05070c"/><stop offset="1" stop-color="#323946"/></linearGradient>
    <filter id="glow"><feGaussianBlur stdDeviation="2.6" result="b"/><feMerge><feMergeNode in="b"/><feMergeNode in="SourceGraphic"/></feMerge></filter>
  </defs>
  <path d="M14 5h52l16 16v56L66 91H14L4 79V17z" fill="url(#metal)" stroke="#00f5d4" stroke-width="2.5"/>
  <path d="M22 14h38l12 12v42L60 80H22L14 70V24z" fill="#03060b" stroke="#00f5d4" stroke-opacity=".35"/>
  <path d="M45 12a33 33 0 100 66 33 33 0 000-66z M12 45h66 M45 12c12 12 12 54 0 66 M45 12c-12 12-12 54 0 66" fill="none" stroke="#00f5d4" stroke-width="5" stroke-linecap="round" stroke-linejoin="round" filter="url(#glow)"/>
  <text x="48" y="59" fill="#00f5d4" font-family="monospace" font-weight="900" font-size="26" text-anchor="middle" opacity=".18">W</text>
</svg>